<svg width="174" height="54" viewBox="0 0 174 54" fill="none" xmlns="http://www.w3.org/2000/svg">
<path d="M18 43.2C15.696 43.2 13.472 42.912 11.328 42.336C9.184 41.792 7.264 40.96 5.568 39.84C3.872 38.72 2.512 37.312 1.488 35.616C0.496 33.92 0 31.92 0 29.616C0 27.92 0.304 26.112 0.912 24.192C1.264 23.104 1.76 22.176 2.4 21.408C3.072 20.64 3.76 20.048 4.464 19.632C5.168 19.216 5.728 19.008 6.144 19.008C6.688 19.008 6.912 19.264 6.816 19.776C6.624 20 6.288 20.272 5.808 20.592C5.36 20.88 4.864 21.264 4.32 21.744C3.808 22.224 3.312 22.848 2.832 23.616C2.384 24.352 2.064 25.296 1.872 26.448C1.808 26.864 1.744 27.28 1.68 27.696C1.648 28.112 1.632 28.512 1.632 28.896C1.632 30.976 2.08 32.816 2.976 34.416C3.872 36.016 5.04 37.344 6.48 38.4C7.952 39.456 9.552 40.24 11.28 40.752C13.04 41.296 14.768 41.552 16.464 41.52C19.056 41.456 21.36 41.088 23.376 40.416C25.392 39.776 27.184 38.912 28.752 37.824C30.32 36.736 31.696 35.536 32.88 34.224C33.872 33.136 34.864 31.808 35.856 30.24C36.848 28.672 37.808 26.992 38.736 25.2C39.696 23.376 40.592 21.568 41.424 19.776C42.288 17.984 43.088 16.288 43.824 14.688C44.56 13.088 45.2 11.728 45.744 10.608C46.288 9.456 46.736 8.656 47.088 8.208C44.56 7.44 42.128 6.848 39.792 6.432C37.488 5.984 35.024 5.696 32.4 5.568C30 5.44 27.856 5.712 25.968 6.384C24.112 7.056 22.528 7.968 21.216 9.12C19.936 10.24 18.944 11.472 18.24 12.816C17.568 14.16 17.232 15.456 17.232 16.704C17.232 17.792 17.504 18.768 18.048 19.632C18.624 20.464 19.488 21.072 20.64 21.456C21.408 21.68 22.16 21.792 22.896 21.792C24.048 21.792 25.056 21.552 25.92 21.072C26.784 20.592 27.504 20.016 28.08 19.344C28.688 18.64 29.136 17.984 29.424 17.376C29.744 16.736 29.904 16.272 29.904 15.984V15.936C30.064 15.744 30.224 15.648 30.384 15.648C30.704 15.648 30.864 15.872 30.864 16.32C30.704 17.696 30.208 18.896 29.376 19.92C28.576 20.944 27.6 21.728 26.448 22.272C25.296 22.816 24.08 23.088 22.8 23.088C21.904 23.088 21.04 22.944 20.208 22.656C18.448 22.016 17.12 20.992 16.224 19.584C15.328 18.144 14.88 16.592 14.88 14.928C14.88 13.52 15.184 12.128 15.792 10.752C16.4 9.344 17.328 8.064 18.576 6.912C19.824 5.728 21.376 4.784 23.232 4.08C25.088 3.376 27.264 3.024 29.76 3.024C30.176 3.024 30.512 3.024 30.768 3.024C31.024 3.024 31.456 3.056 32.064 3.12C33.568 3.248 35.088 3.504 36.624 3.888C38.16 4.24 39.632 4.64 41.04 5.088C42.448 5.536 43.744 5.968 44.928 6.384C46.112 6.8 47.088 7.104 47.856 7.296C47.952 7.168 48.224 6.944 48.672 6.624C49.152 6.304 49.632 5.968 50.112 5.616C50.624 5.264 51.024 4.96 51.312 4.704C51.6 4.448 51.616 4.32 51.36 4.32H51.312C51.408 4.288 51.536 4.272 51.696 4.272C52.016 4.272 52.256 4.384 52.416 4.608C52.576 4.8 52.656 5.008 52.656 5.232C52.656 5.648 52.464 5.856 52.08 5.856C52.016 5.856 51.888 5.824 51.696 5.76C51.568 5.632 51.328 5.696 50.976 5.952C50.656 6.208 50.32 6.512 49.968 6.864C49.648 7.184 49.392 7.456 49.2 7.68C49.904 7.904 50.784 8.176 51.84 8.496C52.928 8.784 54.08 9.088 55.296 9.408C56.544 9.696 57.76 9.936 58.944 10.128C60.128 10.32 61.184 10.416 62.112 10.416C63.008 10.416 63.712 10.304 64.224 10.08C64.768 9.856 65.04 9.488 65.04 8.976C65.04 8.784 65.072 8.624 65.136 8.496C65.232 8.336 65.392 8.256 65.616 8.256C65.776 8.256 65.888 8.4 65.952 8.688C66.016 8.944 66.048 9.152 66.048 9.312C66.048 10.08 65.632 10.704 64.8 11.184C64 11.664 62.992 11.904 61.776 11.904C61.584 11.904 61.392 11.904 61.2 11.904C61.008 11.872 60.8 11.84 60.576 11.808C56.992 11.36 54.192 10.784 52.176 10.08C50.192 9.376 48.944 8.912 48.432 8.688C46.992 10.992 45.808 13.36 44.88 15.792C43.952 18.224 43.072 20.656 42.24 23.088C41.44 25.52 40.496 27.872 39.408 30.144C38.352 32.416 36.944 34.56 35.184 36.576C33.904 38.016 32.336 39.232 30.48 40.224C28.656 41.216 26.672 41.952 24.528 42.432C22.384 42.944 20.208 43.2 18 43.2ZM48.9049 38.88C47.7209 38.88 46.6489 38.496 45.6889 37.728C44.7609 36.96 44.2969 35.792 44.2969 34.224C44.2969 32.784 44.6489 31.248 45.3529 29.616C46.0569 27.952 46.9529 26.496 48.0409 25.248C48.9689 24.16 50.0089 23.264 51.1609 22.56C52.3129 21.856 53.4009 21.504 54.4249 21.504C55.1289 21.504 55.7369 21.696 56.2489 22.08C56.7929 22.496 57.0649 23.088 57.0649 23.856C57.0649 24.656 56.7609 25.536 56.1529 26.496C55.5449 27.456 54.6809 28.352 53.5609 29.184C53.0809 29.536 52.4729 29.872 51.7369 30.192C51.0009 30.512 50.2649 30.784 49.5289 31.008C48.7929 31.2 48.1849 31.296 47.7049 31.296C47.5449 31.68 47.3849 32.192 47.2249 32.832C47.0969 33.472 47.0329 34.128 47.0329 34.8C47.0329 35.6 47.1929 36.32 47.5129 36.96C47.8329 37.6 48.4249 37.92 49.2889 37.92C50.3449 37.92 51.3049 37.616 52.1689 37.008C53.0329 36.4 53.8009 35.648 54.4729 34.752C55.1449 33.824 55.7049 32.896 56.1529 31.968C56.6329 31.04 57.0169 30.256 57.3049 29.616C57.4969 29.168 57.7529 28.944 58.0729 28.944C58.2329 28.944 58.3129 29.024 58.3129 29.184C58.3129 29.312 58.2649 29.472 58.1689 29.664C57.7209 30.624 57.2409 31.648 56.7289 32.736C56.2169 33.792 55.6089 34.8 54.9049 35.76C54.2009 36.688 53.3529 37.44 52.3609 38.016C51.4009 38.592 50.2489 38.88 48.9049 38.88ZM48.0409 30.432C48.4889 30.432 49.2409 30.272 50.2969 29.952C51.3529 29.6 52.3129 29.056 53.1769 28.32C54.0089 27.584 54.6489 26.784 55.0969 25.92C55.5449 25.024 55.7689 24.272 55.7689 23.664C55.7689 22.96 55.5129 22.608 55.0009 22.608C54.6169 22.608 54.0889 22.864 53.4169 23.376C52.7449 23.888 51.9129 24.752 50.9209 25.968C50.3129 26.736 49.7369 27.568 49.1929 28.464C48.6489 29.36 48.2649 30.016 48.0409 30.432ZM67.7711 38.832C67.4191 38.864 67.0191 38.784 66.5711 38.592C66.1231 38.4 65.7231 38.048 65.3711 37.536C65.0511 37.024 64.8911 36.304 64.8911 35.376C64.8911 34.608 65.0351 33.68 65.3231 32.592C64.9391 33.2 64.4431 33.952 63.8351 34.848C63.2271 35.712 62.5711 36.48 61.8671 37.152C61.2591 37.728 60.6831 38.144 60.1391 38.4C59.5951 38.656 59.0991 38.784 58.6511 38.784C57.8191 38.784 57.1471 38.416 56.6351 37.68C56.1231 36.912 55.8671 35.92 55.8671 34.704C55.8671 33.424 56.1871 31.968 56.8271 30.336C57.4671 28.704 58.5071 27.008 59.9471 25.248C60.8751 24.128 61.9951 23.232 63.3071 22.56C64.6511 21.856 65.9631 21.504 67.2431 21.504C67.9791 21.504 68.6831 21.632 69.3551 21.888C70.0271 22.112 70.6191 22.496 71.1311 23.04C71.3551 23.264 71.4671 23.52 71.4671 23.808C71.4671 24 71.3871 24.16 71.2271 24.288C71.0671 24.416 70.8591 24.448 70.6031 24.384C70.2511 23.264 69.4991 22.704 68.3471 22.704C67.8031 22.704 67.1791 22.88 66.4751 23.232C65.3871 23.808 64.2511 24.752 63.0671 26.064C61.9151 27.376 60.9071 28.736 60.0431 30.144C59.9151 30.336 59.7071 30.704 59.4191 31.248C59.1631 31.792 58.9071 32.4 58.6511 33.072C58.3951 33.744 58.2191 34.4 58.1231 35.04C58.0911 35.232 58.0751 35.376 58.0751 35.472C58.0751 35.536 58.0751 35.648 58.0751 35.808C58.0751 36.864 58.4751 37.392 59.2751 37.392C60.2351 37.392 61.3231 36.688 62.5391 35.28C63.3711 34.256 64.1231 33.184 64.7951 32.064C65.4671 30.944 66.1551 29.744 66.8591 28.464C67.3391 27.6 67.7871 26.88 68.2031 26.304C68.6191 25.728 69.2111 25.44 69.9791 25.44C70.3311 25.44 70.6831 25.488 71.0351 25.584C71.3871 25.68 71.7551 25.696 72.1391 25.632C71.8831 25.888 71.5311 26.368 71.0831 27.072C70.6671 27.776 70.2191 28.576 69.7391 29.472C69.2591 30.368 68.8271 31.28 68.4431 32.208C68.0591 33.136 67.7871 33.936 67.6271 34.608C67.5951 34.8 67.5471 35.072 67.4831 35.424C67.4511 35.776 67.4351 36.032 67.4351 36.192C67.4351 37.088 67.6911 37.536 68.2031 37.536C68.7151 37.536 69.2591 37.232 69.8351 36.624C70.4431 36.016 71.0351 35.264 71.6111 34.368C72.1871 33.472 72.7151 32.576 73.1951 31.68C73.6751 30.752 74.0591 30 74.3471 29.424C74.4751 29.104 74.6671 28.944 74.9231 28.944C75.0831 28.944 75.1631 29.056 75.1631 29.28C75.1631 29.376 75.1151 29.552 75.0191 29.808C74.6351 30.608 74.1711 31.52 73.6271 32.544C73.0831 33.536 72.4911 34.512 71.8511 35.472C71.2111 36.4 70.5391 37.184 69.8351 37.824C69.1631 38.432 68.4751 38.768 67.7711 38.832ZM102.491 43.632C101.307 43.632 100.091 43.504 98.8429 43.248C97.6269 42.992 96.4109 42.608 95.1949 42.096C93.2109 41.232 91.6109 40.096 90.3949 38.688C89.1789 37.312 88.2989 35.744 87.7549 33.984C87.2109 32.224 86.9389 30.384 86.9389 28.464C86.9389 26.448 87.1789 24.432 87.6589 22.416C88.1709 20.4 88.8749 18.48 89.7709 16.656C90.6669 14.8 91.6749 13.152 92.7949 11.712C92.5709 10.88 92.3789 9.92 92.2189 8.832C92.0909 7.744 92.0269 6.64 92.0269 5.52C92.0269 3.824 92.2189 2.208 92.6029 0.672C92.7309 0.224 92.9549 0 93.2749 0C93.4989 0 93.6109 0.16 93.6109 0.48C93.6109 0.672001 93.5949 0.816003 93.5629 0.912003C93.4989 1.392 93.4349 1.888 93.3709 2.4C93.3389 2.912 93.3229 3.44 93.3229 3.984C93.3229 5.072 93.3869 6.144 93.5149 7.2C93.6429 8.256 93.7869 9.232 93.9469 10.128C96.2829 7.088 98.9549 4.832 101.963 3.36C105.003 1.856 108.187 1.104 111.515 1.104C112.379 1.104 113.211 1.152 114.011 1.248C116.571 1.536 118.667 2.176 120.299 3.168C121.931 4.128 123.131 5.312 123.899 6.72C124.699 8.128 125.099 9.616 125.099 11.184C125.099 12.72 124.747 14.24 124.043 15.744C123.339 17.248 122.315 18.624 120.971 19.872C119.627 21.088 117.979 22.08 116.027 22.848C114.107 23.584 111.931 23.952 109.499 23.952C108.955 23.952 108.411 23.936 107.867 23.904C107.323 23.872 106.731 23.808 106.091 23.712C103.563 23.328 101.259 22.512 99.1789 21.264C97.0989 20.016 95.4189 18.096 94.1389 15.504C93.8829 15.824 93.5309 16.48 93.0829 17.472C92.6349 18.432 92.1869 19.6 91.7389 20.976C91.2909 22.352 90.9069 23.856 90.5869 25.488C90.2669 27.088 90.1069 28.704 90.1069 30.336C90.1069 31.904 90.3149 33.424 90.7309 34.896C91.1469 36.336 91.8669 37.6 92.8909 38.688C93.9149 39.808 95.3069 40.64 97.0669 41.184C97.9309 41.44 98.8269 41.632 99.755 41.76C100.683 41.888 101.627 41.952 102.587 41.952C104.443 41.952 106.283 41.712 108.107 41.232C109.931 40.752 111.627 40.048 113.195 39.12C115.275 37.904 116.875 36.496 117.995 34.896C119.115 33.264 120.155 31.44 121.115 29.424C121.243 29.104 121.419 28.944 121.643 28.944C121.803 28.944 121.883 29.056 121.883 29.28C121.883 29.44 121.819 29.632 121.691 29.856C121.019 31.264 120.347 32.56 119.675 33.744C119.003 34.896 118.219 35.968 117.323 36.96C116.427 37.952 115.291 38.928 113.915 39.888C112.347 40.976 110.587 41.872 108.635 42.576C106.683 43.28 104.635 43.632 102.491 43.632ZM109.211 22.704C111.419 22.704 113.371 22.384 115.067 21.744C116.763 21.072 118.187 20.208 119.339 19.152C120.523 18.064 121.403 16.864 121.979 15.552C122.587 14.24 122.891 12.912 122.891 11.568C122.891 10.256 122.587 9.008 121.979 7.824C121.371 6.64 120.443 5.632 119.195 4.8C117.979 3.936 116.411 3.376 114.491 3.12C113.787 3.024 113.083 2.976 112.379 2.976C110.203 2.976 108.059 3.44 105.947 4.368C103.867 5.264 101.899 6.544 100.043 8.208C98.1869 9.84 96.5389 11.76 95.0989 13.968C96.2189 16.752 97.7869 18.8 99.803 20.112C101.851 21.424 104.187 22.24 106.811 22.56C107.643 22.656 108.443 22.704 109.211 22.704ZM123.317 38.688C122.101 38.688 121.204 38.288 120.629 37.488C120.053 36.656 119.765 35.648 119.765 34.464C119.765 33.024 120.101 31.52 120.773 29.952C121.413 28.48 122.229 27.136 123.221 25.92C124.213 24.704 125.285 23.728 126.437 22.992C127.589 22.224 128.709 21.84 129.797 21.84C131.013 21.84 131.909 22.24 132.485 23.04C133.061 23.84 133.349 24.848 133.349 26.064C133.349 27.536 133.013 29.04 132.341 30.576C131.957 31.44 131.413 32.4 130.709 33.456C130.005 34.48 129.205 35.424 128.309 36.288C128.501 36.64 128.773 36.944 129.125 37.2C129.477 37.424 129.957 37.536 130.565 37.536C131.333 37.536 132.053 37.216 132.725 36.576C133.429 35.936 134.069 35.168 134.645 34.272C135.221 33.344 135.733 32.416 136.181 31.488C136.629 30.56 136.997 29.808 137.285 29.232C137.381 29.04 137.541 28.944 137.765 28.944C137.893 28.944 137.989 29.008 138.053 29.136C138.117 29.232 138.101 29.392 138.005 29.616C137.813 30.096 137.493 30.816 137.045 31.776C136.597 32.704 136.053 33.68 135.413 34.704C134.773 35.696 134.037 36.544 133.205 37.248C132.373 37.952 131.445 38.304 130.421 38.304C129.717 38.304 129.109 38.192 128.597 37.968C128.085 37.712 127.669 37.408 127.349 37.056C126.677 37.568 126.005 37.968 125.333 38.256C124.661 38.544 123.989 38.688 123.317 38.688ZM124.037 37.632C124.901 37.632 125.829 37.216 126.821 36.384C126.565 36 126.373 35.6 126.245 35.184C126.117 34.768 126.053 34.384 126.053 34.032C126.053 33.456 126.181 32.96 126.437 32.544C126.725 32.128 127.157 31.92 127.733 31.92C128.149 31.92 128.485 32.08 128.741 32.4C129.029 32.688 129.173 33.024 129.173 33.408C129.173 33.504 129.157 33.6 129.125 33.696C129.125 33.76 129.109 33.84 129.077 33.936C129.621 33.2 130.133 32.336 130.613 31.344C131.669 29.072 132.197 27.2 132.197 25.728C132.197 24.992 132.053 24.416 131.765 24C131.477 23.584 131.045 23.376 130.469 23.376C129.797 23.376 129.061 23.664 128.261 24.24C127.493 24.816 126.741 25.584 126.005 26.544C125.301 27.504 124.677 28.576 124.133 29.76C123.621 30.848 123.205 31.904 122.885 32.928C122.597 33.92 122.453 34.784 122.453 35.52C122.453 36.16 122.581 36.672 122.837 37.056C123.093 37.44 123.493 37.632 124.037 37.632ZM136.227 39.264C135.651 39.264 135.363 39.024 135.363 38.544C135.363 38.224 135.443 37.952 135.603 37.728C135.699 37.536 136.035 37.328 136.611 37.104C137.187 36.848 137.779 36.608 138.387 36.384C139.027 36.128 139.459 35.936 139.683 35.808C140.259 35.52 140.883 34.976 141.555 34.176C142.259 33.344 142.979 32.416 143.715 31.392C144.451 30.336 145.171 29.312 145.875 28.32C146.579 27.328 147.251 26.496 147.891 25.824C147.315 25.696 146.659 25.552 145.923 25.392C145.187 25.232 144.499 25.152 143.859 25.152C143.091 25.152 142.419 25.248 141.843 25.44C141.299 25.6 140.755 25.952 140.211 26.496C139.667 27.008 139.091 27.776 138.483 28.8C137.875 29.824 137.139 31.184 136.275 32.88C136.115 33.136 135.923 33.264 135.699 33.264C135.539 33.264 135.459 33.168 135.459 32.976C135.459 32.848 135.507 32.688 135.603 32.496C135.763 32.208 136.035 31.696 136.419 30.96C136.803 30.192 137.187 29.424 137.571 28.656C137.955 27.856 138.243 27.28 138.435 26.928C139.235 25.488 140.003 24.432 140.739 23.76C141.507 23.088 142.243 22.656 142.947 22.464C143.683 22.272 144.371 22.176 145.011 22.176C145.555 22.176 146.067 22.288 146.547 22.512C147.059 22.736 147.555 22.976 148.035 23.232C148.515 23.456 148.995 23.568 149.475 23.568C150.083 23.568 150.531 23.408 150.819 23.088C151.107 22.768 151.363 22.608 151.587 22.608C151.811 22.608 152.003 22.704 152.163 22.896C152.323 23.088 152.403 23.328 152.403 23.616C152.403 24.032 152.259 24.304 151.971 24.432C151.715 24.56 151.459 24.704 151.203 24.864C150.339 25.344 149.507 26.064 148.707 27.024C147.939 27.952 147.171 28.976 146.403 30.096C145.667 31.216 144.931 32.304 144.195 33.36C143.459 34.384 142.723 35.232 141.987 35.904C142.627 36.096 143.411 36.304 144.339 36.528C145.267 36.752 146.115 36.864 146.883 36.864C147.075 36.864 147.235 36.864 147.363 36.864C147.523 36.832 147.683 36.8 147.843 36.768C148.579 36.576 149.267 36.144 149.907 35.472C150.547 34.768 151.139 33.968 151.683 33.072C152.227 32.176 152.707 31.28 153.123 30.384C153.571 29.488 153.939 28.752 154.227 28.176C154.323 27.984 154.467 27.888 154.659 27.888C154.851 27.888 154.947 27.984 154.947 28.176C154.947 28.336 154.915 28.48 154.851 28.608C154.115 30.368 153.299 32.064 152.403 33.696C151.507 35.296 150.531 36.592 149.475 37.584C148.451 38.576 147.331 39.056 146.115 39.024C144.739 38.96 143.523 38.816 142.467 38.592C141.411 38.368 140.515 38.256 139.779 38.256C139.171 38.256 138.579 38.416 138.003 38.736C137.459 39.088 136.867 39.264 136.227 39.264ZM147.064 54C145.4 54 144.216 53.664 143.512 52.992C142.808 52.352 142.456 51.584 142.456 50.688C142.456 50.208 142.52 49.792 142.648 49.44C142.776 49.088 142.968 48.64 143.224 48.096C143.672 47.168 144.296 46.368 145.096 45.696C145.896 45.024 146.76 44.48 147.688 44.064C149.352 43.296 151.24 42.672 153.352 42.192C155.496 41.712 157.544 41.184 159.496 40.608C160.104 39.552 160.664 38.352 161.176 37.008C161.688 35.632 162.152 34.304 162.568 33.024C162.984 31.712 163.32 30.64 163.576 29.808C163.192 30.512 162.696 31.376 162.088 32.4C161.512 33.392 160.856 34.368 160.12 35.328C159.384 36.288 158.584 37.088 157.72 37.728C156.888 38.368 156.008 38.688 155.08 38.688C154.728 38.688 154.296 38.608 153.784 38.448C153.304 38.288 152.872 38 152.488 37.584C152.136 37.136 151.96 36.48 151.96 35.616C151.96 34.784 152.152 33.984 152.536 33.216C152.952 32.416 153.336 31.648 153.688 30.912C153.592 30.912 153.48 30.88 153.352 30.816C153.256 30.752 153.208 30.656 153.208 30.528C153.208 30.4 153.24 30.272 153.304 30.144C153.432 29.888 153.576 29.616 153.736 29.328C153.896 29.04 154.04 28.736 154.168 28.416C154.648 27.424 155.128 26.48 155.608 25.584C156.088 24.656 156.504 23.84 156.856 23.136C157.208 22.432 157.816 22.08 158.68 22.08H161.656C161.432 22.272 161.144 22.496 160.792 22.752C160.472 22.976 160.168 23.328 159.88 23.808C159.016 25.28 158.264 26.704 157.624 28.08C156.984 29.424 156.296 30.864 155.56 32.4C155.208 33.136 154.952 33.808 154.792 34.416C154.632 35.024 154.552 35.552 154.552 36C154.552 37.056 154.904 37.584 155.608 37.584C156.376 37.584 157.304 36.96 158.392 35.712C159.288 34.656 160.184 33.408 161.08 31.968C162.008 30.496 162.888 28.992 163.72 27.456C164.584 25.888 165.336 24.448 165.976 23.136C166.328 22.432 166.952 22.08 167.848 22.08H170.488C169.56 22.72 168.84 23.552 168.328 24.576C167.848 25.6 167.304 26.912 166.696 28.512C166.024 30.272 165.384 32.096 164.776 33.984C164.2 35.84 163.544 37.712 162.808 39.6C163.864 39.248 165.048 38.704 166.36 37.968C167.704 37.232 168.84 36.176 169.768 34.8C170.504 33.712 171.128 32.672 171.64 31.68C172.184 30.656 172.568 29.92 172.792 29.472C172.92 29.152 173.096 28.992 173.32 28.992C173.544 28.992 173.656 29.136 173.656 29.424C173.656 29.584 173.608 29.76 173.512 29.952C172.68 31.616 171.928 33.024 171.256 34.176C170.616 35.296 169.896 36.272 169.096 37.104C168.328 37.904 167.384 38.608 166.264 39.216C165.144 39.856 163.72 40.496 161.992 41.136C161.224 42.512 160.344 43.936 159.352 45.408C158.392 46.912 157.288 48.304 156.04 49.584C154.824 50.896 153.464 51.952 151.96 52.752C150.488 53.584 148.856 54 147.064 54ZM145.912 53.04C146.968 53.04 148.056 52.72 149.176 52.08C150.296 51.44 151.384 50.624 152.44 49.632C153.496 48.672 154.456 47.68 155.32 46.656C156.216 45.664 156.936 44.784 157.48 44.016C157.64 43.792 157.816 43.504 158.008 43.152C158.2 42.8 158.392 42.464 158.584 42.144C157.016 42.56 155.288 43.008 153.4 43.488C151.544 44 149.928 44.56 148.552 45.168C147.016 45.808 145.816 46.72 144.952 47.904C144.056 49.088 143.608 50.144 143.608 51.072C143.608 51.648 143.8 52.112 144.184 52.464C144.536 52.848 145.112 53.04 145.912 53.04Z" fill="#FFF5EE"/>
</svg>
